<svg id="Layer_1" data-name="Layer 1" xmlns="http://www.w3.org/2000/svg" viewBox="0 0 512 512"><title>social-media-icon6</title><path d="M500.11,0H254.42C112.83,0,1.26,115.55,1.26,257.14V502.86c0,5.9,1.54,9.14,7.45,9.14H254.42C396,512,510.74,398.76,510.74,257.14V11.43C510.74,5.53,506,0,500.11,0Z" fill="#e27000"/><polygon points="357.75 327.55 339.78 272.47 321.84 327.55 263.7 327.55 310.71 361.6 292.77 416.68 339.78 382.64 386.79 416.68 368.85 361.6 415.86 327.55 357.75 327.55" fill="#fff"/><path d="M297.23,366l-68.81-49.83H313.5c3.77-11.6,26.28-80.65,26.28-80.65s22.51,69,26.3,80.65H411.5l-71.72-220-57.69,177H95.36L283,409.6C289,391.17,295.39,371.66,297.23,366Z" fill="#fff"/></svg>